<svg width="1024" height="1024" viewBox="0 0 1024 1024" fill="none" xmlns="http://www.w3.org/2000/svg">
<path d="M546.133 222.477L390.66 378.241C380.276 388.644 374.383 402.984 374.383 417.885V698.767C374.383 729.695 399.64 755 430.51 755H683.084C705.535 755 725.741 741.504 734.721 720.979L826.209 507.014C849.783 451.344 809.09 389.488 748.753 389.488H590.193L616.854 260.715C619.66 246.657 615.45 232.318 605.347 222.196C588.79 205.888 562.41 205.888 546.133 222.477V222.477ZM262.128 755C292.998 755 318.255 729.695 318.255 698.767V473.837C318.255 442.909 292.998 417.604 262.128 417.604C231.257 417.604 206 442.909 206 473.837V698.767C206 729.695 231.257 755 262.128 755Z" fill="#22C55E"/>
</svg>
